<svg width="18" height="18" viewBox="0 0 18 18" fill="none" xmlns="http://www.w3.org/2000/svg">
<path fill-rule="evenodd" clip-rule="evenodd" d="M15.364 2.63606C16.1997 3.47179 16.8627 4.46395 17.315 5.55588C17.7673 6.64782 18 7.81815 18 9.00006C18 10.182 17.7673 11.3523 17.315 12.4442C16.8627 13.5362 16.1997 14.5283 15.364 15.3641C14.5283 16.1998 13.5361 16.8627 12.4442 17.315C11.3522 17.7673 10.1819 18.0001 8.99999 18.0001C7.81809 18.0001 6.64776 17.7673 5.55582 17.315C4.46389 16.8627 3.47173 16.1998 2.63599 15.3641C0.948156 13.6762 -6.10529e-05 11.387 -6.10352e-05 9.00006C-6.10174e-05 6.61309 0.948156 4.32389 2.63599 2.63606C4.32383 0.948218 6.61303 1.77843e-08 8.99999 0C11.387 -1.77843e-08 13.6762 0.948218 15.364 2.63606V2.63606ZM13.192 14.6061L3.39299 4.80805C2.38391 6.1563 1.89462 7.8231 2.01484 9.50285C2.13506 11.1826 2.85672 12.7627 4.04752 13.9535C5.23832 15.1443 6.81845 15.866 8.4982 15.9862C10.178 16.1064 11.8448 15.6171 13.193 14.6081L13.192 14.6061ZM13.95 4.05006C15.1401 5.24045 15.8615 6.81971 15.9821 8.49862C16.1028 10.1775 15.6146 11.8437 14.607 13.1921L4.80699 3.39306C6.15533 2.38496 7.82177 1.89649 9.50097 2.01716C11.1802 2.13782 12.7596 2.85954 13.95 4.05006V4.05006Z" fill="black"/>
</svg>
